<svg id="svg" version="1.1" xmlns="http://www.w3.org/2000/svg" xmlns:xlink="http://www.w3.org/1999/xlink" width="400" height="117.98237389836865" viewBox="0, 0, 400,117.98237389836865"><g id="svgg"><path id="path0" d="M317.250 0.231 C 316.482 0.594,271.449 45.775,269.970 47.667 C 260.755 59.452,258.093 76.047,263.274 89.417 C 263.594 90.242,263.939 91.142,264.040 91.417 C 266.198 97.270,271.971 104.659,277.833 109.071 C 280.716 111.241,285.855 114.156,287.833 114.743 C 288.063 114.811,288.937 115.121,289.777 115.431 C 296.777 118.015,305.817 118.510,313.667 116.736 C 320.549 115.182,326.805 112.100,331.882 107.762 C 333.067 106.750,333.056 106.658,331.590 105.360 C 330.294 104.214,330.014 104.149,329.147 104.798 C 328.816 105.047,328.104 105.585,327.564 105.995 C 311.462 118.220,287.946 115.773,274.603 100.484 C 269.988 95.196,267.570 90.467,265.665 83.000 C 264.638 78.972,264.583 70.675,265.557 66.500 C 266.452 62.664,267.787 59.024,269.377 56.083 C 270.746 53.552,271.172 52.918,273.884 49.363 C 279.015 42.640,288.272 37.480,298.500 35.641 C 300.473 35.287,307.975 35.335,310.000 35.715 C 311.988 36.088,315.724 36.961,316.214 37.167 C 316.417 37.253,317.277 37.588,318.125 37.913 C 321.970 39.384,324.886 41.048,328.719 43.958 C 329.675 44.684,330.513 44.885,330.783 44.454 C 330.857 44.338,331.348 43.879,331.875 43.434 C 333.249 42.276,333.220 42.221,329.915 39.704 C 327.376 37.771,320.473 34.000,319.473 34.000 C 319.376 34.000,318.611 33.747,317.773 33.437 C 316.935 33.127,315.875 32.792,315.417 32.692 C 309.375 31.379,308.424 31.259,304.083 31.259 C 299.410 31.259,294.174 32.058,290.684 33.303 L 289.285 33.803 304.705 18.360 C 321.284 1.756,320.618 2.495,320.104 1.281 C 319.639 0.183,318.354 -0.290,317.250 0.231 " stroke="none" fill="#9cbc14" fill-rule="evenodd"></path><path id="path1" d="M117.099 9.808 C 117.051 9.886,116.512 10.241,115.902 10.598 C 115.291 10.955,114.758 11.335,114.717 11.442 C 114.654 11.608,115.089 12.667,115.221 12.667 C 115.521 12.667,118.119 11.628,118.220 11.467 C 118.400 11.182,117.725 9.667,117.419 9.667 C 117.291 9.667,117.147 9.730,117.099 9.808 M0.039 18.208 L 0.083 23.583 1.417 23.583 L 2.750 23.583 2.794 18.208 L 2.838 12.833 1.417 12.833 L -0.005 12.833 0.039 18.208 M4.500 18.257 L 4.500 23.680 5.875 23.632 L 7.250 23.583 7.235 20.083 C 7.223 17.084,7.252 16.655,7.436 17.083 C 7.555 17.358,7.655 17.699,7.659 17.840 C 7.663 17.982,7.960 18.919,8.318 19.924 C 8.677 20.928,9.091 22.181,9.240 22.708 L 9.509 23.667 11.820 23.667 C 14.634 23.667,14.333 24.315,14.333 18.250 C 14.333 12.323,14.486 12.833,12.710 12.833 L 11.289 12.833 11.366 16.333 C 11.409 18.258,11.428 19.814,11.408 19.791 C 11.388 19.769,10.883 18.325,10.284 16.583 C 9.686 14.842,9.144 13.285,9.080 13.125 C 8.978 12.868,8.703 12.833,6.732 12.833 L 4.500 12.833 4.500 18.257 M17.319 12.993 C 16.018 13.387,15.498 14.309,15.504 16.212 C 15.510 18.456,16.128 19.184,18.208 19.400 C 21.321 19.724,21.000 19.627,21.000 20.243 C 21.000 21.323,18.490 21.330,18.304 20.250 C 18.253 19.953,18.096 19.911,16.850 19.868 L 15.453 19.819 15.541 20.915 C 15.729 23.252,16.537 23.745,20.005 23.638 C 23.313 23.536,23.917 23.016,23.917 20.272 C 23.917 17.719,23.518 17.312,20.690 16.975 C 18.462 16.710,18.500 16.724,18.500 16.183 C 18.500 15.236,20.612 15.185,20.905 16.125 C 21.014 16.473,21.119 16.500,22.345 16.500 L 23.667 16.500 23.666 15.542 C 23.665 13.496,22.681 12.835,19.667 12.851 C 18.612 12.857,17.556 12.921,17.319 12.993 M24.447 12.941 C 24.248 13.141,24.321 15.421,24.533 15.633 C 24.646 15.746,25.188 15.833,25.780 15.833 L 26.827 15.833 26.872 19.708 L 26.917 23.583 28.333 23.583 L 29.750 23.583 29.795 19.716 L 29.839 15.848 31.045 15.799 L 32.250 15.750 32.250 14.333 L 32.250 12.917 28.406 12.872 C 26.291 12.847,24.510 12.879,24.447 12.941 M33.117 12.938 C 32.974 13.081,32.959 23.032,33.101 23.403 C 33.182 23.615,33.480 23.667,34.603 23.667 L 36.005 23.667 35.961 18.292 L 35.917 12.917 34.576 12.869 C 33.838 12.842,33.182 12.874,33.117 12.938 M36.869 14.292 L 36.917 15.750 38.039 15.799 L 39.161 15.848 39.205 19.716 L 39.250 23.583 40.667 23.583 L 42.083 23.583 42.128 19.708 L 42.173 15.833 43.303 15.833 C 44.702 15.833,44.833 15.710,44.833 14.397 C 44.833 12.705,45.171 12.833,40.726 12.833 L 36.820 12.833 36.869 14.292 M45.500 16.920 C 45.500 22.818,45.721 23.352,48.264 23.590 C 53.488 24.080,54.000 23.502,54.000 17.125 L 54.000 12.820 52.542 12.869 L 51.083 12.917 51.038 16.742 C 50.988 21.024,51.052 20.827,49.718 20.831 C 48.561 20.834,48.595 20.952,48.500 16.667 L 48.417 12.917 46.958 12.869 L 45.500 12.820 45.500 16.920 M54.905 13.054 C 54.857 13.179,54.840 13.837,54.867 14.516 L 54.917 15.750 56.039 15.799 L 57.161 15.848 57.205 19.716 L 57.250 23.583 58.667 23.583 L 60.083 23.583 60.128 19.708 L 60.173 15.833 61.316 15.833 C 62.765 15.833,62.863 15.721,62.799 14.140 L 62.750 12.917 58.871 12.872 C 55.720 12.836,54.976 12.870,54.905 13.054 M65.750 12.987 C 63.539 13.594,63.167 14.353,63.167 18.250 C 63.167 22.919,63.738 23.583,67.750 23.583 C 71.743 23.583,72.420 22.734,72.307 17.864 C 72.212 13.796,71.487 12.957,68.000 12.886 C 67.037 12.866,66.025 12.912,65.750 12.987 M79.167 18.252 L 79.167 23.680 80.625 23.631 L 82.083 23.583 82.046 20.583 C 82.002 17.169,81.852 17.063,83.231 21.417 L 83.917 23.583 85.057 23.633 C 86.366 23.690,86.589 23.567,86.741 22.702 C 86.800 22.362,87.176 21.071,87.575 19.833 C 87.974 18.596,88.338 17.433,88.383 17.250 C 88.428 17.067,88.423 18.435,88.373 20.292 L 88.281 23.667 89.607 23.667 C 91.457 23.667,91.333 24.052,91.333 18.314 C 91.333 12.188,91.615 12.833,88.939 12.833 L 86.747 12.833 86.125 15.042 C 85.783 16.256,85.456 17.537,85.397 17.887 C 85.339 18.238,85.235 18.463,85.166 18.387 C 85.054 18.264,84.072 14.958,83.714 13.500 L 83.571 12.917 81.369 12.870 L 79.167 12.824 79.167 18.252 M94.598 13.042 C 94.565 13.156,94.188 14.525,93.759 16.083 C 93.330 17.642,92.721 19.827,92.406 20.940 C 91.591 23.819,91.544 23.667,93.240 23.667 C 94.759 23.667,94.801 23.644,95.088 22.667 L 95.260 22.083 96.766 22.036 L 98.271 21.988 98.518 22.786 L 98.766 23.583 100.160 23.632 C 101.924 23.694,101.916 23.710,101.228 21.441 C 100.918 20.419,100.549 19.096,100.407 18.500 C 100.265 17.904,99.838 16.385,99.460 15.125 L 98.771 12.833 96.713 12.833 C 95.210 12.833,94.640 12.889,94.598 13.042 M102.365 17.398 C 102.434 23.555,102.453 23.583,106.470 23.583 C 110.705 23.583,110.827 23.405,110.831 17.208 L 110.833 12.833 109.417 12.833 L 108.000 12.833 108.000 16.571 C 108.000 20.898,108.021 20.833,106.592 20.833 C 105.326 20.833,105.346 20.898,105.295 16.654 L 105.250 12.917 103.782 12.868 L 102.314 12.820 102.365 17.398 M114.254 13.125 C 114.191 13.285,114.078 13.754,114.003 14.167 C 113.928 14.579,113.560 15.929,113.186 17.167 C 112.811 18.404,112.504 19.539,112.502 19.688 C 112.501 19.837,112.273 20.696,111.996 21.598 C 111.342 23.719,111.327 23.691,113.117 23.632 L 114.573 23.583 114.798 22.786 L 115.023 21.988 116.548 22.036 L 118.073 22.083 118.298 22.882 L 118.523 23.680 119.887 23.632 C 121.616 23.570,121.611 23.596,120.599 20.055 C 120.185 18.604,119.610 16.557,119.322 15.507 C 118.502 12.516,118.845 12.833,116.439 12.833 C 114.622 12.833,114.355 12.869,114.254 13.125 M127.583 13.024 C 127.535 13.150,127.515 15.578,127.539 18.418 L 127.583 23.583 131.000 23.583 C 136.311 23.583,136.612 23.247,136.476 17.468 C 136.377 13.287,136.023 12.996,130.877 12.871 C 128.255 12.808,127.655 12.836,127.583 13.024 M138.000 18.247 L 138.000 23.667 141.566 23.667 C 145.582 23.667,145.333 23.756,145.333 22.309 C 145.333 20.856,145.296 20.833,142.911 20.833 L 140.833 20.833 140.833 20.083 L 140.833 19.333 142.833 19.333 L 144.833 19.333 144.833 18.167 L 144.833 17.000 142.833 17.000 L 140.833 17.000 140.833 16.338 L 140.833 15.677 142.958 15.630 L 145.083 15.583 145.083 14.250 L 145.083 12.917 141.542 12.872 L 138.000 12.827 138.000 18.247 M151.702 14.289 L 151.750 15.750 152.958 15.799 L 154.167 15.848 154.167 19.757 L 154.167 23.667 155.566 23.667 C 157.299 23.667,157.167 24.012,157.167 19.486 L 157.167 15.833 158.230 15.833 C 159.589 15.833,159.696 15.705,159.633 14.140 L 159.583 12.917 155.618 12.872 L 151.654 12.827 151.702 14.289 M160.410 13.040 C 160.365 13.157,160.348 15.578,160.373 18.418 L 160.417 23.583 164.048 23.628 L 167.680 23.673 167.632 22.295 L 167.583 20.917 165.458 20.870 L 163.333 20.823 163.333 20.078 L 163.333 19.333 165.333 19.333 L 167.333 19.333 167.333 18.167 L 167.333 17.000 165.333 17.000 L 163.333 17.000 163.333 16.333 L 163.333 15.667 165.292 15.664 C 167.742 15.661,167.695 15.691,167.633 14.152 L 167.583 12.917 164.038 12.872 C 161.278 12.837,160.474 12.874,160.410 13.040 M171.583 12.945 C 169.338 13.439,168.946 14.299,169.029 18.543 C 169.120 23.239,169.415 23.583,173.333 23.583 C 176.790 23.583,177.744 22.862,177.632 20.336 L 177.583 19.250 176.177 19.250 L 174.771 19.250 174.621 19.833 C 174.328 20.968,172.713 21.303,172.207 20.333 C 171.840 19.629,171.994 16.204,172.407 15.903 C 173.159 15.354,174.429 15.711,174.530 16.500 C 174.582 16.907,174.621 16.918,176.125 16.965 L 177.667 17.013 177.666 16.215 C 177.664 14.487,177.003 13.322,175.843 13.000 C 175.263 12.839,172.243 12.800,171.583 12.945 M178.833 18.256 L 178.833 23.680 180.292 23.631 L 181.750 23.583 181.688 20.333 C 181.654 18.546,181.673 17.127,181.730 17.181 C 181.860 17.303,182.991 20.515,182.996 20.777 C 182.998 20.884,183.232 21.580,183.516 22.324 L 184.033 23.676 186.308 23.630 L 188.583 23.583 188.583 18.250 L 188.583 12.917 187.182 12.917 L 185.781 12.917 185.804 16.250 L 185.827 19.583 185.411 18.417 C 185.182 17.775,184.770 16.575,184.495 15.750 C 184.220 14.925,183.878 13.931,183.734 13.542 L 183.472 12.833 181.153 12.833 L 178.833 12.833 178.833 18.256 M192.324 12.982 C 190.260 13.655,189.959 14.254,189.866 17.880 C 189.740 22.782,190.379 23.583,194.417 23.583 C 198.426 23.583,199.003 22.900,198.992 18.167 C 198.983 14.742,198.739 14.057,197.250 13.286 C 196.521 12.908,193.180 12.702,192.324 12.982 M200.107 13.202 C 199.954 13.773,199.984 23.217,200.140 23.462 C 200.243 23.624,201.050 23.663,203.595 23.629 L 206.917 23.583 206.966 22.264 C 207.026 20.645,207.062 20.672,204.878 20.669 L 203.173 20.667 203.128 16.792 L 203.083 12.917 201.646 12.869 C 200.271 12.823,200.204 12.837,200.107 13.202 M209.871 13.078 C 208.067 13.641,207.620 14.502,207.529 17.583 C 207.389 22.343,208.142 23.489,211.503 23.632 C 215.908 23.819,216.736 22.967,216.736 18.250 C 216.736 15.186,216.635 14.724,215.759 13.798 C 214.918 12.909,211.681 12.513,209.871 13.078 M219.619 13.112 C 217.836 13.724,217.450 14.746,217.528 18.652 C 217.617 23.118,218.055 23.583,222.167 23.583 C 225.145 23.583,225.670 23.421,226.122 22.364 C 226.418 21.669,226.756 18.380,226.596 17.743 L 226.491 17.324 224.204 17.370 L 221.917 17.417 221.866 18.485 C 221.809 19.694,221.909 19.827,222.875 19.831 C 223.829 19.835,223.712 20.747,222.734 20.931 C 220.929 21.269,220.428 20.577,220.528 17.882 C 220.601 15.927,220.728 15.694,221.800 15.550 C 222.750 15.423,223.317 15.602,223.502 16.088 C 223.652 16.482,223.720 16.500,225.099 16.500 L 226.540 16.500 226.469 15.542 C 226.307 13.376,225.662 12.933,222.583 12.877 C 220.927 12.847,220.229 12.902,219.619 13.112 M227.912 13.037 C 227.866 13.156,227.848 15.578,227.873 18.418 L 227.917 23.583 229.333 23.583 L 230.750 23.583 230.750 18.250 L 230.750 12.917 229.372 12.868 C 228.360 12.833,227.973 12.877,227.912 13.037 M234.187 13.129 C 234.100 13.291,233.956 13.797,233.867 14.254 C 233.719 15.014,233.055 17.451,231.827 21.740 C 231.249 23.760,231.193 23.667,233.002 23.667 L 234.484 23.667 234.658 23.042 C 234.753 22.698,234.832 22.323,234.832 22.208 C 234.833 22.057,235.256 22.000,236.387 22.000 L 237.941 22.000 238.187 22.792 L 238.432 23.583 239.899 23.632 L 241.365 23.680 241.247 22.965 C 241.181 22.572,240.799 21.154,240.397 19.814 C 239.996 18.474,239.667 17.274,239.668 17.147 C 239.669 17.020,239.395 15.998,239.060 14.875 L 238.450 12.833 236.398 12.833 C 234.604 12.833,234.325 12.871,234.187 13.129 M68.739 15.829 L 69.167 15.992 69.167 18.151 C 69.167 20.709,69.102 20.833,67.770 20.833 C 66.321 20.833,66.250 20.713,66.250 18.250 C 66.250 15.672,66.834 15.105,68.739 15.829 M195.711 15.978 C 196.090 16.358,195.990 20.307,195.593 20.597 C 195.145 20.924,193.598 20.907,193.262 20.571 C 192.865 20.175,192.880 16.310,193.280 15.911 C 193.609 15.581,195.363 15.630,195.711 15.978 M213.333 16.000 C 213.627 16.294,213.667 16.556,213.667 18.213 C 213.667 20.628,213.549 20.833,212.167 20.833 C 210.784 20.833,210.667 20.628,210.667 18.213 C 210.667 15.931,210.822 15.667,212.167 15.667 C 212.778 15.667,213.089 15.756,213.333 16.000 M133.300 16.033 C 133.552 16.285,133.575 19.882,133.327 20.344 C 133.179 20.622,132.969 20.667,131.827 20.667 L 130.500 20.667 130.500 18.250 L 130.500 15.833 131.800 15.833 C 132.589 15.833,133.179 15.912,133.300 16.033 M97.160 17.434 C 97.697 19.174,97.659 19.333,96.696 19.333 L 95.892 19.333 96.312 17.833 C 96.814 16.045,96.741 16.079,97.160 17.434 M116.976 17.890 L 117.283 19.333 116.475 19.333 C 115.631 19.333,115.565 19.263,115.824 18.633 C 115.911 18.422,116.103 17.811,116.251 17.274 C 116.579 16.082,116.594 16.094,116.976 17.890 M236.908 18.012 C 237.050 18.693,237.166 19.269,237.167 19.292 C 237.167 19.315,236.829 19.333,236.417 19.333 C 235.538 19.333,235.566 19.450,236.026 17.696 C 236.437 16.132,236.522 16.162,236.908 18.012 M0.000 74.333 L 0.000 116.333 42.000 116.333 L 84.000 116.333 84.000 74.333 L 84.000 32.333 42.000 32.333 L 0.000 32.333 0.000 74.333 M103.500 38.250 L 103.500 44.167 172.333 44.167 L 241.167 44.167 241.167 38.250 L 241.167 32.333 172.333 32.333 L 103.500 32.333 103.500 38.250 M353.667 33.244 C 352.796 33.370,351.521 33.585,350.833 33.723 C 350.146 33.860,349.287 34.022,348.924 34.083 C 346.874 34.430,340.039 37.087,338.907 37.978 C 338.658 38.173,338.371 38.334,338.269 38.335 C 338.051 38.337,335.106 40.181,334.554 40.661 C 334.345 40.842,333.873 41.181,333.504 41.414 C 332.408 42.106,332.517 42.375,334.894 44.843 C 342.843 53.094,346.713 62.754,346.740 74.417 C 346.756 81.168,346.010 85.147,343.616 91.076 C 341.740 95.723,338.400 100.711,334.460 104.750 C 332.568 106.690,332.516 106.873,333.625 107.676 C 338.033 110.867,341.899 112.792,347.186 114.428 C 355.658 117.050,367.596 116.232,375.429 112.494 C 375.998 112.222,376.516 112.000,376.578 112.000 C 376.720 112.000,380.386 109.974,380.500 109.833 C 380.546 109.776,381.050 109.449,381.620 109.106 C 382.190 108.763,382.978 108.226,383.370 107.914 C 383.762 107.601,384.495 107.024,384.997 106.631 C 386.149 105.730,390.309 101.570,390.942 100.686 C 391.203 100.321,391.723 99.624,392.096 99.136 C 395.794 94.316,398.591 87.709,399.739 81.083 C 400.108 78.952,400.109 70.053,399.740 67.917 C 399.339 65.595,398.209 61.394,397.588 59.917 C 397.280 59.183,396.974 58.396,396.908 58.167 C 396.766 57.675,394.894 54.028,394.317 53.119 C 391.651 48.920,388.197 44.918,385.064 42.395 C 380.032 38.343,372.947 34.848,368.083 34.016 C 367.533 33.922,366.258 33.687,365.250 33.494 C 362.858 33.034,356.118 32.889,353.667 33.244 M47.167 33.662 C 48.990 33.877,50.647 34.191,52.083 34.593 C 53.275 34.927,54.517 35.265,54.843 35.344 C 56.210 35.674,62.357 38.556,63.167 39.247 C 63.304 39.364,63.667 39.587,63.973 39.742 C 64.737 40.129,68.179 42.776,69.500 43.992 L 70.583 44.989 41.958 44.994 C 26.215 44.998,13.333 44.939,13.333 44.865 C 13.333 44.629,16.242 42.203,18.110 40.880 C 26.598 34.875,36.522 32.410,47.167 33.662 M328.402 46.042 C 326.269 48.230,322.167 53.810,322.167 54.523 C 322.167 54.594,321.948 55.024,321.680 55.478 C 321.109 56.446,319.545 60.085,319.234 61.167 C 319.116 61.579,318.826 62.554,318.590 63.333 C 318.167 64.729,317.760 66.612,317.598 67.917 C 317.553 68.283,317.441 69.108,317.350 69.750 C 316.605 74.975,317.277 81.918,319.027 87.083 C 319.213 87.633,319.391 88.214,319.423 88.373 C 319.481 88.669,320.692 91.581,321.070 92.333 C 322.406 94.998,323.426 96.688,325.204 99.182 C 326.734 101.327,329.587 104.333,330.093 104.333 C 330.610 104.333,333.635 101.296,335.457 98.947 C 336.268 97.902,338.333 94.864,338.455 94.536 C 338.514 94.379,338.769 93.910,339.023 93.494 C 340.244 91.494,342.290 86.098,342.813 83.500 C 344.095 77.123,344.099 71.944,342.828 65.583 C 342.336 63.119,340.416 58.002,339.149 55.777 C 338.792 55.150,338.500 54.603,338.500 54.560 C 338.500 54.420,336.621 51.603,335.847 50.583 C 333.855 47.958,330.632 44.667,330.053 44.667 C 329.883 44.667,329.140 45.285,328.402 46.042 M12.626 88.757 L 12.583 103.181 11.295 101.716 C -2.773 85.716,-2.821 62.946,11.179 47.079 L 12.583 45.488 12.626 59.911 C 12.649 67.843,12.649 80.824,12.626 88.757 M73.971 48.757 C 86.745 64.735,85.903 86.935,71.941 102.250 L 71.182 103.083 71.177 74.333 L 71.173 45.583 72.016 46.474 C 72.479 46.964,73.359 47.991,73.971 48.757 M45.943 46.261 C 65.861 49.329,76.518 71.149,66.522 88.396 C 59.505 100.503,44.906 105.715,31.782 100.800 C 30.756 100.416,29.413 99.816,28.797 99.467 C 28.181 99.119,27.635 98.833,27.583 98.833 C 27.081 98.833,23.181 95.726,21.456 93.952 C 13.946 86.228,11.360 73.911,15.256 64.417 C 16.937 60.318,18.021 58.566,20.867 55.348 C 22.564 53.430,26.671 50.000,27.272 50.000 C 27.321 50.000,27.811 49.736,28.361 49.414 C 31.214 47.741,35.922 46.329,39.742 45.999 C 41.550 45.843,43.864 45.940,45.943 46.261 M227.327 50.308 C 226.358 50.826,223.838 52.318,223.196 52.755 C 222.862 52.981,222.532 53.167,222.463 53.167 C 222.394 53.167,221.810 53.504,221.167 53.917 C 220.523 54.329,219.920 54.667,219.826 54.667 C 219.445 54.667,219.521 55.165,220.091 56.400 L 220.692 57.701 221.471 57.587 C 221.900 57.524,223.225 57.152,224.417 56.760 C 225.608 56.368,227.399 55.794,228.395 55.484 C 230.729 54.759,230.715 55.201,228.547 50.542 C 228.256 49.915,228.114 49.888,227.327 50.308 M105.833 74.748 L 105.833 90.167 110.173 90.167 L 114.514 90.167 114.417 88.292 C 114.172 83.552,113.834 73.407,113.836 70.880 L 113.840 68.083 115.346 72.500 C 116.174 74.929,116.922 77.194,117.008 77.532 C 117.094 77.871,117.452 78.959,117.804 79.949 C 118.948 83.172,119.696 85.395,120.008 86.502 C 120.176 87.098,120.528 88.148,120.790 88.835 L 121.266 90.083 124.995 90.083 L 128.723 90.083 129.557 87.583 C 130.015 86.208,130.670 84.258,131.011 83.250 C 131.353 82.242,132.687 78.229,133.976 74.333 L 136.320 67.250 136.237 68.750 C 136.082 71.546,135.500 87.351,135.500 88.763 L 135.500 90.167 139.750 90.167 L 144.000 90.167 144.000 74.748 L 144.000 59.330 137.213 59.373 L 130.426 59.417 129.723 61.750 C 128.082 67.195,127.500 69.195,127.500 69.387 C 127.500 69.499,127.237 70.414,126.916 71.420 C 126.595 72.427,126.148 73.962,125.924 74.833 C 125.700 75.704,125.377 76.820,125.208 77.313 L 124.899 78.209 124.593 77.146 C 124.425 76.562,123.956 74.996,123.549 73.667 C 122.277 69.503,120.090 62.294,119.555 60.500 L 119.231 59.417 112.532 59.373 L 105.833 59.330 105.833 74.748 M154.943 61.458 C 153.585 65.963,152.820 68.511,152.078 71.000 C 151.654 72.421,151.020 74.521,150.669 75.667 C 150.317 76.813,149.640 79.063,149.164 80.667 C 148.688 82.271,148.087 84.258,147.830 85.083 C 147.133 87.314,146.500 89.614,146.500 89.910 C 146.500 90.143,146.999 90.167,150.957 90.128 L 155.414 90.083 155.641 89.167 C 155.767 88.662,156.088 87.518,156.357 86.623 L 156.844 84.995 162.122 85.039 L 167.400 85.083 167.634 85.917 C 167.763 86.375,168.098 87.519,168.379 88.458 L 168.889 90.167 173.278 90.167 C 175.692 90.167,177.667 90.115,177.667 90.052 C 177.667 89.928,177.222 88.440,176.082 84.750 C 175.686 83.467,175.016 81.254,174.593 79.833 C 173.864 77.382,173.212 75.238,171.575 69.917 C 170.887 67.679,169.887 64.372,168.879 61.000 L 168.405 59.417 161.994 59.375 L 155.583 59.334 154.943 61.458 M180.065 59.570 C 179.825 60.197,180.116 83.078,180.379 84.189 C 181.182 87.579,183.074 89.259,186.817 89.905 C 194.391 91.212,201.879 90.297,204.423 87.752 C 206.697 85.478,206.823 84.562,206.829 70.206 L 206.833 59.328 202.542 59.372 L 198.250 59.417 198.167 70.333 C 198.062 84.036,198.537 82.750,193.583 82.750 C 188.462 82.750,188.937 83.989,188.833 70.363 L 188.750 59.417 184.454 59.372 C 180.823 59.335,180.144 59.365,180.065 59.570 M217.937 61.208 C 216.776 64.927,216.114 67.107,215.748 68.417 C 215.373 69.762,214.784 71.719,213.745 75.083 C 213.433 76.092,212.914 77.817,212.592 78.917 C 212.269 80.017,211.677 82.004,211.276 83.333 C 209.822 88.149,209.333 89.825,209.333 89.994 C 209.333 90.109,210.838 90.167,213.817 90.167 L 218.300 90.167 218.499 89.292 C 218.609 88.810,218.930 87.648,219.214 86.708 L 219.730 85.000 225.005 85.000 L 230.281 85.000 230.572 86.042 C 230.733 86.615,231.066 87.758,231.313 88.583 L 231.762 90.083 236.131 90.128 C 239.458 90.162,240.500 90.124,240.500 89.971 C 240.500 89.773,240.355 89.275,238.909 84.500 C 237.260 79.053,236.626 76.966,235.923 74.667 C 235.517 73.337,234.843 71.125,234.427 69.750 C 234.010 68.375,233.336 66.162,232.929 64.833 C 232.522 63.504,231.985 61.723,231.735 60.875 L 231.281 59.333 224.902 59.333 L 218.522 59.333 217.937 61.208 M163.271 70.583 C 163.495 71.408,163.910 72.833,164.193 73.750 C 164.475 74.667,164.843 75.979,165.008 76.667 C 165.174 77.354,165.361 78.048,165.423 78.208 C 165.528 78.480,165.308 78.500,162.184 78.500 C 159.191 78.500,158.833 78.471,158.833 78.227 C 158.833 78.077,159.162 76.820,159.564 75.435 C 161.497 68.771,161.834 67.563,161.834 67.305 C 161.831 65.868,162.253 66.829,163.271 70.583 M226.331 71.161 C 226.332 71.295,226.627 72.345,226.985 73.494 C 227.556 75.325,228.333 78.160,228.333 78.412 C 228.333 78.461,226.833 78.500,225.000 78.500 C 222.660 78.500,221.667 78.445,221.667 78.314 C 221.667 78.212,221.997 76.993,222.400 75.606 C 223.964 70.225,224.661 67.724,224.775 67.083 C 224.888 66.449,226.324 70.210,226.331 71.161 M356.614 72.458 C 357.324 74.144,359.159 79.908,359.027 80.040 C 358.564 80.503,357.446 80.094,357.207 79.375 L 356.972 78.667 355.315 78.667 L 353.658 78.667 353.496 79.125 C 353.200 79.960,353.062 80.082,352.357 80.135 C 351.334 80.210,351.345 80.089,352.744 75.896 C 354.153 71.673,354.045 71.839,355.384 71.836 C 356.344 71.833,356.352 71.838,356.614 72.458 M365.871 72.042 C 366.018 72.156,366.778 73.525,367.560 75.083 L 368.982 77.917 368.991 74.976 C 369.001 71.779,368.985 71.830,369.972 71.836 C 370.849 71.841,370.843 71.807,370.795 76.095 L 370.750 80.083 369.467 80.132 C 367.954 80.189,368.275 80.529,366.353 76.833 L 365.010 74.250 364.963 77.167 L 364.917 80.083 364.083 80.083 L 363.250 80.083 363.205 76.095 C 363.171 73.016,363.209 72.076,363.372 71.973 C 363.707 71.760,365.575 71.812,365.871 72.042 M381.194 72.276 C 382.542 73.062,382.853 78.312,381.618 79.466 C 380.419 80.586,376.520 80.358,375.598 79.113 C 374.779 78.007,375.089 73.155,376.023 72.458 C 376.968 71.752,380.104 71.642,381.194 72.276 M391.940 72.214 C 393.144 72.849,393.187 74.500,392.000 74.500 C 391.288 74.500,391.167 74.453,391.167 74.179 C 391.167 73.373,389.093 72.931,388.429 73.595 C 387.565 74.459,388.200 75.078,390.107 75.230 C 392.510 75.422,393.000 75.829,393.000 77.636 C 393.000 79.469,392.419 80.007,390.304 80.132 C 387.562 80.295,386.668 79.855,386.537 78.278 L 386.459 77.333 387.212 77.333 C 387.983 77.333,388.167 77.493,388.167 78.162 C 388.167 78.729,390.549 78.927,391.071 78.405 C 391.955 77.521,391.295 76.879,389.290 76.671 C 386.846 76.417,386.500 76.124,386.500 74.303 C 386.500 73.629,386.849 72.340,387.033 72.331 C 387.061 72.329,387.383 72.216,387.750 72.079 C 388.643 71.744,391.208 71.827,391.940 72.214 M377.971 73.451 C 377.014 73.557,376.917 73.795,376.917 76.019 C 376.917 78.487,376.961 78.549,378.739 78.565 C 380.429 78.579,380.565 78.437,380.642 76.568 C 380.719 74.723,380.567 73.707,380.199 73.604 C 379.677 73.457,378.588 73.382,377.971 73.451 M354.796 75.133 C 354.554 75.931,354.305 76.715,354.243 76.875 C 354.143 77.136,354.255 77.167,355.304 77.167 L 356.478 77.167 355.908 75.475 C 355.595 74.544,355.316 73.760,355.288 73.733 C 355.261 73.705,355.039 74.335,354.796 75.133 M69.833 104.368 C 64.175 109.644,55.048 114.158,48.500 114.917 C 48.179 114.955,47.167 115.074,46.250 115.183 C 45.333 115.291,43.308 115.378,41.750 115.375 C 39.262 115.370,38.299 115.301,35.250 114.906 C 28.395 114.017,17.463 108.535,13.609 104.052 L 13.134 103.500 41.942 103.506 L 70.750 103.513 69.833 104.368 M103.500 110.417 L 103.500 116.333 172.333 116.333 L 241.167 116.333 241.167 110.417 L 241.167 104.500 172.333 104.500 L 103.500 104.500 103.500 110.417 " stroke="none" fill="#04447c" fill-rule="evenodd"></path><path id="path2" d="M377.317 72.158 C 375.696 72.455,375.469 72.866,375.379 75.667 C 375.261 79.367,375.673 79.913,378.583 79.912 C 381.747 79.911,382.157 79.468,382.163 76.045 C 382.169 72.438,380.985 71.488,377.317 72.158 M388.167 72.181 C 387.040 72.397,386.667 72.918,386.667 74.270 C 386.667 76.070,386.877 76.238,389.478 76.505 C 391.329 76.695,391.574 76.869,391.442 77.899 C 391.334 78.741,391.167 78.828,389.645 78.831 C 388.292 78.833,388.075 78.725,387.974 78.000 C 387.877 77.295,386.564 77.376,386.630 78.083 C 386.781 79.681,387.856 80.178,390.610 79.920 C 392.367 79.755,392.715 79.431,392.803 77.875 C 392.909 75.996,392.505 75.632,390.083 75.426 C 388.276 75.272,388.195 75.238,388.070 74.573 C 387.796 73.113,390.531 72.420,391.167 73.788 C 391.557 74.627,392.667 74.606,392.667 73.759 C 392.667 72.347,390.768 71.680,388.167 72.181 M352.992 75.784 C 352.328 77.782,351.750 79.510,351.708 79.625 C 351.654 79.772,351.848 79.833,352.362 79.833 C 353.073 79.833,353.100 79.814,353.338 79.125 L 353.583 78.417 355.319 78.417 L 357.056 78.417 357.292 79.125 C 357.521 79.814,357.548 79.833,358.253 79.833 L 358.978 79.833 357.696 76.042 L 356.415 72.250 355.307 72.201 L 354.199 72.152 352.992 75.784 M363.333 76.003 L 363.333 79.852 364.042 79.801 L 364.750 79.750 364.716 76.625 C 364.697 74.906,364.734 73.502,364.799 73.505 C 364.864 73.508,365.628 74.933,366.498 76.672 L 368.080 79.833 369.373 79.833 L 370.667 79.833 370.667 76.000 L 370.667 72.167 369.904 72.167 L 369.141 72.167 369.195 75.334 C 369.225 77.075,369.205 78.482,369.149 78.459 C 369.094 78.436,368.337 77.029,367.468 75.333 L 365.888 72.250 364.611 72.201 L 363.333 72.153 363.333 76.003 M380.456 73.551 C 381.194 74.290,380.859 78.370,380.033 78.688 C 379.341 78.955,377.393 78.798,377.042 78.447 C 376.664 78.068,376.604 74.060,376.970 73.619 C 377.396 73.106,379.961 73.056,380.456 73.551 M356.051 75.272 C 356.771 77.566,356.792 77.500,355.318 77.500 C 353.843 77.500,353.840 77.490,354.583 75.190 C 355.323 72.903,355.308 72.902,356.051 75.272 " stroke="none" fill="#f9fafa" fill-rule="evenodd"></path><path id="path3" d="M354.792 71.954 C 355.090 71.991,355.577 71.991,355.875 71.954 C 356.173 71.917,355.929 71.887,355.333 71.887 C 354.738 71.887,354.494 71.917,354.792 71.954 M363.955 71.954 C 364.250 71.990,364.775 71.991,365.121 71.955 C 365.467 71.919,365.225 71.889,364.583 71.888 C 363.942 71.887,363.659 71.917,363.955 71.954 M369.627 71.951 C 369.834 71.991,370.134 71.990,370.294 71.948 C 370.453 71.906,370.283 71.874,369.917 71.875 C 369.550 71.877,369.420 71.911,369.627 71.951 M378.129 71.956 C 378.521 71.991,379.121 71.990,379.463 71.954 C 379.804 71.919,379.483 71.890,378.750 71.890 C 378.017 71.891,377.737 71.920,378.129 71.956 M388.958 71.955 C 389.348 71.990,389.985 71.990,390.375 71.955 C 390.765 71.920,390.446 71.892,389.667 71.892 C 388.887 71.892,388.569 71.920,388.958 71.955 M363.245 76.042 L 363.250 80.083 364.083 80.083 L 364.917 80.083 365.000 77.083 C 365.046 75.433,365.027 74.012,364.958 73.925 C 364.890 73.838,364.833 75.169,364.833 76.883 L 364.833 80.000 364.086 80.000 L 363.339 80.000 363.290 76.000 L 363.241 72.000 363.245 76.042 M368.966 75.017 C 368.939 76.676,368.972 78.120,369.039 78.225 C 369.106 78.330,369.163 76.973,369.164 75.208 C 369.166 73.444,369.132 72.000,369.091 72.000 C 369.049 72.000,368.993 73.357,368.966 75.017 M370.705 75.951 L 370.667 79.986 369.375 80.043 L 368.083 80.100 369.380 80.133 C 370.982 80.175,370.850 80.576,370.792 75.830 L 370.744 71.917 370.705 75.951 M391.917 74.333 L 391.083 74.448 391.958 74.474 C 392.448 74.488,392.833 74.427,392.833 74.333 C 392.833 74.242,392.815 74.178,392.792 74.193 C 392.769 74.207,392.375 74.270,391.917 74.333 M389.627 75.285 C 389.834 75.324,390.134 75.323,390.294 75.281 C 390.453 75.239,390.283 75.207,389.917 75.209 C 389.550 75.211,389.420 75.245,389.627 75.285 M354.708 77.288 C 355.052 77.324,355.615 77.324,355.958 77.288 C 356.302 77.252,356.021 77.223,355.333 77.223 C 354.646 77.223,354.365 77.252,354.708 77.288 M386.877 77.453 C 387.131 77.491,387.506 77.490,387.711 77.451 C 387.916 77.411,387.708 77.380,387.250 77.381 C 386.792 77.382,386.624 77.415,386.877 77.453 M353.609 78.625 C 353.566 78.694,354.068 78.730,354.724 78.704 C 356.868 78.623,357.115 78.557,355.385 78.528 C 354.451 78.513,353.651 78.556,353.609 78.625 M389.377 78.786 C 389.631 78.825,390.006 78.824,390.211 78.784 C 390.416 78.744,390.208 78.713,389.750 78.714 C 389.292 78.716,389.124 78.748,389.377 78.786 M359.000 79.822 C 359.000 79.970,358.760 80.015,358.182 79.974 C 357.733 79.943,357.400 79.973,357.442 80.042 C 357.562 80.234,358.966 80.190,359.090 79.989 C 359.151 79.891,359.155 79.766,359.100 79.711 C 359.045 79.656,359.000 79.706,359.000 79.822 M351.958 80.118 C 352.165 80.157,352.502 80.157,352.708 80.118 C 352.915 80.078,352.746 80.045,352.333 80.045 C 351.921 80.045,351.752 80.078,351.958 80.118 M377.542 80.115 C 377.702 80.157,377.965 80.157,378.125 80.115 C 378.285 80.073,378.154 80.039,377.833 80.039 C 377.512 80.039,377.381 80.073,377.542 80.115 M379.375 80.115 C 379.535 80.157,379.798 80.157,379.958 80.115 C 380.119 80.073,379.988 80.039,379.667 80.039 C 379.346 80.039,379.215 80.073,379.375 80.115 M388.375 80.115 C 388.535 80.157,388.798 80.157,388.958 80.115 C 389.119 80.073,388.988 80.039,388.667 80.039 C 388.346 80.039,388.215 80.073,388.375 80.115 M390.375 80.115 C 390.535 80.157,390.798 80.157,390.958 80.115 C 391.119 80.073,390.988 80.039,390.667 80.039 C 390.346 80.039,390.215 80.073,390.375 80.115 " stroke="none" fill="#177098" fill-rule="evenodd"></path><path id="path4" d="M354.111 72.111 C 354.050 72.172,354.001 72.303,354.003 72.403 C 354.004 72.502,354.069 72.483,354.147 72.360 C 354.248 72.199,354.601 72.152,355.395 72.193 C 356.003 72.224,356.501 72.194,356.500 72.125 C 356.500 71.970,354.265 71.957,354.111 72.111 M364.584 72.121 L 365.836 72.181 366.337 73.174 C 366.613 73.720,366.879 74.167,366.928 74.167 C 366.978 74.167,366.771 73.698,366.468 73.125 L 365.917 72.083 364.624 72.072 L 363.332 72.061 364.584 72.121 M369.544 72.120 C 369.797 72.158,370.172 72.157,370.377 72.117 C 370.582 72.078,370.375 72.046,369.917 72.048 C 369.458 72.049,369.291 72.081,369.544 72.120 M378.295 73.287 C 378.594 73.325,379.044 73.324,379.295 73.286 C 379.545 73.248,379.300 73.217,378.750 73.218 C 378.200 73.219,377.995 73.250,378.295 73.287 M388.312 73.458 C 388.113 73.712,388.116 73.725,388.333 73.556 C 388.471 73.450,388.808 73.330,389.083 73.290 L 389.583 73.217 389.062 73.192 C 388.740 73.176,388.453 73.278,388.312 73.458 M377.005 73.578 C 376.893 73.712,376.840 73.918,376.888 74.036 C 376.941 74.168,376.979 74.137,376.987 73.953 C 376.994 73.790,377.169 73.588,377.375 73.505 C 377.629 73.403,377.662 73.351,377.479 73.344 C 377.330 73.338,377.116 73.443,377.005 73.578 M364.697 74.542 L 364.728 75.583 364.790 74.704 C 364.824 74.215,364.920 73.867,365.007 73.921 C 365.093 73.974,365.118 73.901,365.064 73.759 C 364.843 73.185,364.668 73.559,364.697 74.542 M386.545 74.333 C 386.545 74.746,386.578 74.915,386.618 74.708 C 386.657 74.502,386.657 74.165,386.618 73.958 C 386.578 73.752,386.545 73.921,386.545 74.333 M357.023 74.000 C 357.023 74.137,357.088 74.400,357.167 74.583 C 357.257 74.793,357.310 74.824,357.310 74.667 C 357.310 74.529,357.245 74.267,357.167 74.083 C 357.076 73.873,357.023 73.842,357.023 74.000 M376.728 76.083 C 376.728 77.000,376.756 77.354,376.790 76.869 C 376.824 76.385,376.823 75.635,376.789 75.203 C 376.755 74.770,376.727 75.167,376.728 76.083 M380.727 76.000 C 380.727 76.871,380.755 77.227,380.789 76.792 C 380.824 76.356,380.824 75.644,380.789 75.208 C 380.755 74.773,380.727 75.129,380.727 76.000 M382.227 76.000 C 382.227 76.871,382.255 77.227,382.289 76.792 C 382.324 76.356,382.324 75.644,382.289 75.208 C 382.255 74.773,382.227 75.129,382.227 76.000 M375.226 76.083 C 375.225 76.908,375.254 77.267,375.288 76.880 C 375.323 76.493,375.324 75.818,375.289 75.380 C 375.255 74.942,375.226 75.258,375.226 76.083 M390.294 75.451 C 390.501 75.491,390.801 75.490,390.960 75.448 C 391.120 75.406,390.950 75.374,390.583 75.375 C 390.217 75.377,390.086 75.411,390.294 75.451 M391.824 75.684 C 392.049 75.774,392.315 75.900,392.416 75.965 C 392.516 76.030,392.456 75.952,392.281 75.792 C 392.106 75.631,391.840 75.505,391.690 75.511 C 391.517 75.517,391.567 75.581,391.824 75.684 M366.417 76.833 C 366.649 77.292,366.876 77.667,366.922 77.667 C 366.968 77.667,366.816 77.292,366.583 76.833 C 366.351 76.375,366.124 76.000,366.078 76.000 C 366.032 76.000,366.184 76.375,366.417 76.833 M389.211 76.620 C 389.464 76.658,389.839 76.657,390.044 76.617 C 390.249 76.578,390.042 76.546,389.583 76.548 C 389.125 76.549,388.957 76.581,389.211 76.620 M354.054 77.083 C 354.095 77.490,356.517 77.605,356.599 77.204 C 356.622 77.087,356.604 77.069,356.557 77.162 C 356.398 77.483,354.203 77.374,354.105 77.042 C 354.038 76.815,354.027 76.824,354.054 77.083 M392.875 77.583 C 392.877 77.950,392.911 78.080,392.951 77.873 C 392.991 77.666,392.990 77.366,392.948 77.206 C 392.906 77.047,392.874 77.217,392.875 77.583 M391.372 77.667 C 391.372 77.987,391.406 78.119,391.448 77.958 C 391.490 77.798,391.490 77.535,391.448 77.375 C 391.406 77.215,391.372 77.346,391.372 77.667 M368.898 78.194 C 368.963 78.527,369.334 78.552,369.331 78.222 C 369.329 77.986,369.296 77.968,369.184 78.144 C 369.083 78.303,369.013 78.315,368.949 78.181 C 368.887 78.052,368.871 78.056,368.898 78.194 M388.005 78.271 C 387.997 78.568,388.455 78.868,388.784 78.783 C 389.024 78.721,389.011 78.702,388.717 78.686 C 388.515 78.675,388.273 78.535,388.180 78.375 C 388.087 78.215,388.008 78.168,388.005 78.271 M353.612 78.453 C 353.567 78.525,354.285 78.559,355.207 78.530 C 356.454 78.490,356.922 78.533,357.037 78.697 C 357.159 78.870,357.178 78.863,357.124 78.667 C 357.050 78.393,353.773 78.194,353.612 78.453 M378.121 78.787 C 378.417 78.824,378.942 78.824,379.288 78.788 C 379.634 78.752,379.392 78.722,378.750 78.721 C 378.108 78.721,377.825 78.750,378.121 78.787 M357.375 79.667 C 357.423 79.843,357.686 79.922,358.263 79.935 L 359.083 79.953 358.336 79.881 C 357.925 79.842,357.526 79.722,357.448 79.614 C 357.351 79.477,357.329 79.494,357.375 79.667 M351.500 79.867 C 351.500 79.940,351.894 79.991,352.375 79.981 C 353.284 79.961,353.197 79.895,352.125 79.793 C 351.781 79.760,351.500 79.794,351.500 79.867 M364.000 79.833 L 363.250 79.950 364.042 79.975 C 364.477 79.989,364.833 79.925,364.833 79.833 C 364.833 79.742,364.815 79.678,364.792 79.692 C 364.769 79.705,364.412 79.769,364.000 79.833 M368.625 79.955 C 369.015 79.990,369.652 79.990,370.042 79.955 C 370.431 79.920,370.113 79.892,369.333 79.892 C 368.554 79.892,368.235 79.920,368.625 79.955 M389.375 80.115 C 389.535 80.157,389.798 80.157,389.958 80.115 C 390.119 80.073,389.988 80.039,389.667 80.039 C 389.346 80.039,389.215 80.073,389.375 80.115 " stroke="none" fill="#71a4bc" fill-rule="evenodd"></path></g></svg>